<svg xmlns="http://www.w3.org/2000/svg" version="1.1" width="100" height="100" viewBox="0 0 100 100"><rect x="0" y="0" width="100" height="100" fill="#ffffff"/><g transform="scale(4.762)"><g transform="translate(0,0)"><path fill-rule="evenodd" d="M8 0L8 2L9 2L9 4L8 4L8 9L10 9L10 11L9 11L9 10L8 10L8 14L10 14L10 15L13 15L13 14L10 14L10 13L11 13L11 12L10 12L10 11L11 11L11 9L13 9L13 10L14 10L14 9L16 9L16 10L15 10L15 11L14 11L14 12L13 12L13 11L12 11L12 12L13 12L13 13L15 13L15 15L14 15L14 18L13 18L13 20L14 20L14 21L21 21L21 18L19 18L19 19L20 19L20 20L18 20L18 18L17 18L17 17L20 17L20 16L17 16L17 15L20 15L20 14L19 14L19 13L18 13L18 14L17 14L17 12L16 12L16 11L18 11L18 12L20 12L20 13L21 13L21 12L20 12L20 10L21 10L21 8L19 8L19 9L20 9L20 10L17 10L17 8L12 8L12 7L13 7L13 6L12 6L12 7L11 7L11 5L10 5L10 7L9 7L9 4L10 4L10 3L11 3L11 4L12 4L12 5L13 5L13 3L12 3L12 2L13 2L13 0ZM10 1L10 2L11 2L11 1ZM0 8L0 9L2 9L2 10L1 10L1 11L5 11L5 13L7 13L7 12L6 12L6 11L7 11L7 10L6 10L6 11L5 11L5 9L7 9L7 8L5 8L5 9L3 9L3 8ZM0 12L0 13L3 13L3 12ZM9 12L9 13L10 13L10 12ZM15 12L15 13L16 13L16 12ZM8 15L8 16L9 16L9 18L8 18L8 21L9 21L9 20L10 20L10 21L11 21L11 19L12 19L12 18L11 18L11 17L13 17L13 16L9 16L9 15ZM15 16L15 18L16 18L16 20L17 20L17 18L16 18L16 16ZM9 18L9 19L10 19L10 18ZM14 19L14 20L15 20L15 19ZM0 0L0 7L7 7L7 0ZM1 1L1 6L6 6L6 1ZM2 2L2 5L5 5L5 2ZM14 0L14 7L21 7L21 0ZM15 1L15 6L20 6L20 1ZM16 2L16 5L19 5L19 2ZM0 14L0 21L7 21L7 14ZM1 15L1 20L6 20L6 15ZM2 16L2 19L5 19L5 16Z" fill="#000000"/></g></g></svg>